<?xml version="1.0" encoding="UTF-8"?>
<svg xmlns="http://www.w3.org/2000/svg" xmlns:xlink="http://www.w3.org/1999/xlink" viewBox="0 0 32 32" width="32px" height="32px">
<g id="surface46670799">
<path style="fill-rule:nonzero;fill:rgb(0%,0%,0%);fill-opacity:1;stroke-width:1;stroke-linecap:butt;stroke-linejoin:round;stroke:rgb(100%,100%,100%);stroke-opacity:1;stroke-miterlimit:10;" d="M 158.240078 30.953903 L 158.240078 141.046094 C 158.240078 150.530245 150.530245 158.240078 141.046094 158.240078 L 30.953903 158.240078 C 21.469752 158.240078 13.759919 150.530245 13.759919 141.046094 L 13.759919 30.953903 C 13.759919 21.469752 21.469752 13.759919 30.953903 13.759919 L 141.046094 13.759919 C 150.530245 13.759919 158.240078 21.469752 158.240078 30.953903 Z M 37.839945 68.806015 L 37.839945 134.160052 L 58.476951 134.160052 L 58.476951 68.806015 Z M 48.169009 58.476951 C 54.632595 58.476951 58.476951 54.59035 58.476951 49.774344 C 58.244599 44.958339 54.357999 41.282967 48.169009 41.282967 C 41.958897 41.282967 37.839945 44.958339 37.839945 49.774344 C 37.839945 54.59035 41.958897 58.476951 48.169009 58.476951 Z M 134.160052 97.216221 C 134.160052 78.184551 123.091689 68.806015 109.425217 68.806015 C 96.075589 68.806015 89.44302 77.614235 89.44302 77.614235 L 89.44302 68.806015 L 68.806015 68.806015 L 68.806015 134.160052 L 89.44302 134.160052 C 89.44302 134.160052 89.44302 102.898263 89.44302 99.750961 C 89.44302 92.94941 92.886041 85.852139 101.208436 85.852139 L 101.483033 85.852139 C 110.080025 85.999999 113.523046 92.886041 113.523046 99.750961 C 113.523046 102.306824 113.523046 134.160052 113.523046 134.160052 L 134.160052 134.160052 Z M 134.160052 97.216221 " transform="matrix(0.18493,0,0,0.18493,0.096,0.096)"/>
<path style=" stroke:none;fill-rule:nonzero;fill:rgb(58.431375%,64.705884%,65.098041%);fill-opacity:1;" d="M 26.179688 2.640625 L 5.820312 2.640625 C 4.066406 2.640625 2.640625 4.066406 2.640625 5.820312 L 2.640625 26.179688 C 2.640625 27.933594 4.066406 29.359375 5.820312 29.359375 L 26.179688 29.359375 C 27.933594 29.359375 29.359375 27.933594 29.359375 26.179688 L 29.359375 5.820312 C 29.359375 4.066406 27.933594 2.640625 26.179688 2.640625 Z M 10.910156 12.820312 L 10.910156 24.90625 L 7.09375 24.90625 L 7.09375 12.820312 Z M 7.09375 9.300781 C 7.09375 8.410156 7.855469 7.730469 9.003906 7.730469 C 10.148438 7.730469 10.867188 8.410156 10.910156 9.300781 C 10.910156 10.191406 10.199219 10.910156 9.003906 10.910156 C 7.855469 10.910156 7.09375 10.191406 7.09375 9.300781 Z M 24.90625 24.90625 L 21.089844 24.90625 C 21.089844 24.90625 21.089844 19.015625 21.089844 18.542969 C 21.089844 17.273438 20.453125 16 18.863281 15.972656 L 18.8125 15.972656 C 17.273438 15.972656 16.636719 17.285156 16.636719 18.542969 C 16.636719 19.125 16.636719 24.90625 16.636719 24.90625 L 12.820312 24.90625 L 12.820312 12.820312 L 16.636719 12.820312 L 16.636719 14.449219 C 16.636719 14.449219 17.863281 12.820312 20.332031 12.820312 C 22.859375 12.820312 24.90625 14.554688 24.90625 18.074219 Z M 24.90625 24.90625 "/>
</g>
</svg>
