<?xml version="1.0" encoding="UTF-8"?>
<svg xmlns="http://www.w3.org/2000/svg" xmlns:xlink="http://www.w3.org/1999/xlink" viewBox="0 0 32 32" width="32px" height="32px">
<g id="surface51535462">
<path style=" stroke:none;fill-rule:nonzero;fill:rgb(58.431375%,64.705884%,65.098041%);fill-opacity:1;" d="M 10.238281 1.921875 C 5.652344 1.921875 1.921875 5.652344 1.921875 10.238281 L 1.921875 21.761719 C 1.921875 26.347656 5.652344 30.078125 10.238281 30.078125 L 21.761719 30.078125 C 26.347656 30.078125 30.078125 26.347656 30.078125 21.761719 L 30.078125 10.238281 C 30.078125 5.652344 26.347656 1.921875 21.761719 1.921875 Z M 10.238281 3.199219 L 21.761719 3.199219 C 25.65625 3.199219 28.800781 6.34375 28.800781 10.238281 L 28.800781 21.761719 C 28.800781 25.65625 25.65625 28.800781 21.761719 28.800781 L 10.238281 28.800781 C 6.34375 28.800781 3.199219 25.65625 3.199219 21.761719 L 3.199219 10.238281 C 3.199219 6.34375 6.34375 3.199219 10.238281 3.199219 Z M 23.679688 7.039062 C 22.972656 7.039062 22.398438 7.613281 22.398438 8.320312 C 22.398438 9.027344 22.972656 9.601562 23.679688 9.601562 C 24.386719 9.601562 24.960938 9.027344 24.960938 8.320312 C 24.960938 7.613281 24.386719 7.039062 23.679688 7.039062 Z M 16 8.960938 C 12.121094 8.960938 8.960938 12.121094 8.960938 16 C 8.960938 19.878906 12.121094 23.039062 16 23.039062 C 19.878906 23.039062 23.039062 19.878906 23.039062 16 C 23.039062 12.121094 19.878906 8.960938 16 8.960938 Z M 16 10.238281 C 19.1875 10.238281 21.761719 12.8125 21.761719 16 C 21.761719 19.1875 19.1875 21.761719 16 21.761719 C 12.8125 21.761719 10.238281 19.1875 10.238281 16 C 10.238281 12.8125 12.8125 10.238281 16 10.238281 Z M 16 10.238281 "/>
</g>
</svg>
